<svg width="100" height="100" viewBox="-7 -15.5 100 100" xmlns="http://www.w3.org/2000/svg">
  <rect x="-7" y="-15.5" width="100" height="100" fill="#030303"/>
  <path fill="#fefefe" stroke="#fefefe" stroke-width="0.25mm" d="M 0 68 L 4.6 1 Q 4.6 0.207 5.23 0.043 A 1.473 1.473 0 0 1 5.6 0 A 1.191 1.191 0 0 1 6.347 0.264 A 1.636 1.636 0 0 1 6.5 0.4 L 19 11.6 A 53.309 53.309 0 0 1 20.899 13.369 A 41.894 41.894 0 0 1 22.2 14.7 A 43.2 43.2 0 0 1 23.902 12.981 A 54.898 54.898 0 0 1 25.4 11.6 L 37.9 0.4 A 1.474 1.474 0 0 1 38.242 0.141 A 1.16 1.16 0 0 1 38.8 0 Q 39.594 0 39.757 0.63 A 1.473 1.473 0 0 1 39.8 1 L 44.4 68 Q 44.4 68.794 43.77 68.958 A 1.473 1.473 0 0 1 43.4 69 A 1.753 1.753 0 0 1 42.978 68.954 Q 42.428 68.817 42.324 68.274 A 1.463 1.463 0 0 1 42.3 68 L 37.9 3.3 L 26.7 13.2 Q 24.9 14.8 23.6 16.3 Q 25.6 18.8 26.45 21.1 Q 27.3 23.4 27.3 25.8 A 13.274 13.274 0 0 1 26.983 28.755 A 11.132 11.132 0 0 1 26.35 30.7 Q 25.4 32.9 24.2 35 Q 23.725 35.855 23.43 36.44 A 20.975 20.975 0 0 0 23.4 36.5 A 25.612 25.612 0 0 1 24.499 39.051 A 32.334 32.334 0 0 1 25.15 41 A 17.196 17.196 0 0 1 25.735 43.854 A 23.442 23.442 0 0 1 25.9 46.7 A 12.856 12.856 0 0 1 25.093 51.269 A 12.297 12.297 0 0 1 24.9 51.75 Q 24.391 52.948 23.699 53.535 A 2.255 2.255 0 0 1 22.2 54.1 Q 20.8 54.1 19.874 52.505 A 6.847 6.847 0 0 1 19.5 51.75 A 12.72 12.72 0 0 1 18.501 46.869 A 14.495 14.495 0 0 1 18.5 46.7 A 23.325 23.325 0 0 1 18.676 43.764 A 17.117 17.117 0 0 1 19.25 41 A 31.173 31.173 0 0 1 20.173 38.346 A 24.705 24.705 0 0 1 21 36.5 Q 20.715 35.93 20.249 35.089 A 70.549 70.549 0 0 0 20.2 35 Q 19 32.9 18.05 30.7 A 11.619 11.619 0 0 1 17.175 27.279 A 14.242 14.242 0 0 1 17.1 25.8 A 13.404 13.404 0 0 1 18.457 20.024 Q 19.313 18.213 20.709 16.416 A 23.939 23.939 0 0 1 20.8 16.3 Q 19.5 14.8 17.7 13.2 L 6.5 3.3 L 2.1 68 A 1.297 1.297 0 0 1 2.04 68.413 Q 1.846 68.989 1.031 69 A 2.37 2.37 0 0 1 1 69 Q 0.207 69 0.043 68.371 A 1.473 1.473 0 0 1 0 68 Z M 57.3 68 L 57.3 35.7 A 40.218 40.218 0 0 1 54.774 35.799 A 44.444 44.444 0 0 1 54.4 35.8 Q 50.864 35.8 49.601 34.477 A 2.608 2.608 0 0 1 48.9 32.6 A 3.098 3.098 0 0 1 49.558 30.721 Q 49.913 30.242 50.461 29.796 A 8.239 8.239 0 0 1 51.3 29.2 Q 53.513 27.817 56.745 27.284 A 22.102 22.102 0 0 1 57.3 27.2 L 57.3 1 Q 57.3 0.207 57.93 0.043 A 1.473 1.473 0 0 1 58.3 0 A 1.753 1.753 0 0 1 58.722 0.046 Q 59.273 0.183 59.376 0.727 A 1.463 1.463 0 0 1 59.4 1 L 59.4 26.9 L 60.8 26.9 A 22.706 22.706 0 0 1 64.8 27.239 A 18.279 18.279 0 0 1 67.7 28 A 19.762 19.762 0 0 0 69.599 25.353 A 25.988 25.988 0 0 0 70.9 22.9 Q 72.3 19.9 73.6 16 Q 77.6 3.9 82.8 0.2 A 1.096 1.096 0 0 1 83.124 0.057 Q 83.268 0.018 83.439 0.006 A 2.262 2.262 0 0 1 83.6 0 A 1.297 1.297 0 0 1 84.013 0.06 Q 84.589 0.254 84.6 1.069 A 2.37 2.37 0 0 1 84.6 1.1 Q 84.6 1.6 84.1 1.9 A 9.843 9.843 0 0 0 82.588 3.197 Q 81.144 4.689 79.7 7.15 A 37.367 37.367 0 0 0 77.852 10.766 Q 76.997 12.671 76.214 14.888 A 68.473 68.473 0 0 0 75.7 16.4 Q 74.4 20.3 72.95 23.4 A 33.612 33.612 0 0 1 71.053 26.918 A 27.603 27.603 0 0 1 69.7 28.9 Q 76.54 32.36 79.624 41.972 A 44.323 44.323 0 0 1 80.9 47 L 85 67.8 Q 85.19 68.465 84.749 68.724 A 0.826 0.826 0 0 1 84.7 68.75 A 3.714 3.714 0 0 1 84.435 68.871 Q 84.116 69 83.9 69 A 1.194 1.194 0 0 1 83.498 68.937 Q 83.044 68.775 82.9 68.2 L 78.8 47.4 Q 77.282 39.924 74.122 35.513 A 14.83 14.83 0 0 0 68.2 30.5 Q 64.6 34.3 59.4 35.3 L 59.4 68 A 1.297 1.297 0 0 1 59.34 68.413 Q 59.146 68.989 58.331 69 A 2.37 2.37 0 0 1 58.3 69 Q 57.507 69 57.343 68.371 A 1.473 1.473 0 0 1 57.3 68 Z M 22 33.9 L 22.2 34.3 L 22.4 33.9 Q 23.5 31.9 24.35 29.95 Q 25.2 28 25.2 25.8 A 11.191 11.191 0 0 0 24.254 21.389 Q 23.516 19.654 22.2 17.9 Q 19.2 21.9 19.2 25.8 Q 19.2 28 20.05 29.95 A 47.381 47.381 0 0 0 21.721 33.385 A 52.706 52.706 0 0 0 22 33.9 Z M 20.6 46.7 Q 20.6 48.4 21.1 50 A 9.089 9.089 0 0 0 21.324 50.638 Q 21.702 51.592 22.133 51.863 A 0.795 0.795 0 0 0 22.2 51.9 A 1.016 1.016 0 0 0 22.453 51.669 Q 22.838 51.2 23.25 50 Q 23.8 48.4 23.8 46.7 A 20.417 20.417 0 0 0 23.666 44.304 A 15.955 15.955 0 0 0 23.35 42.5 A 24.065 24.065 0 0 0 22.297 39.14 A 22.111 22.111 0 0 0 22.2 38.9 A 23.777 23.777 0 0 0 21.107 42.263 A 26.183 26.183 0 0 0 21.05 42.5 A 16.377 16.377 0 0 0 20.686 44.764 A 20.995 20.995 0 0 0 20.6 46.7 Z M 59.4 29 L 59.4 33.2 Q 63.3 32.4 66.1 29.7 A 17.369 17.369 0 0 0 62.905 29.099 A 21.852 21.852 0 0 0 60.8 29 L 59.4 29 Z M 57.3 33.6 L 57.3 29.3 A 20.911 20.911 0 0 0 55.169 29.736 Q 53.891 30.072 52.85 30.55 A 7 7 0 0 0 52.141 30.922 Q 51 31.615 51 32.4 A 0.853 0.853 0 0 0 51.462 33.134 Q 52.198 33.598 54.108 33.682 A 20.489 20.489 0 0 0 55 33.7 A 26.225 26.225 0 0 0 56.744 33.644 A 23.162 23.162 0 0 0 57.3 33.6 Z" vector-effect="non-scaling-stroke"/>
</svg>